<?xml version="1.0" encoding="utf-8"?>
<!-- Generator: Adobe Illustrator 26.4.1, SVG Export Plug-In . SVG Version: 6.00 Build 0)  -->
<svg version="1.1" id="Ebene_1" xmlns="http://www.w3.org/2000/svg" xmlns:xlink="http://www.w3.org/1999/xlink" x="0px" y="0px"
	 viewBox="0 0 50 50" style="enable-background:new 0 0 50 50;" xml:space="preserve">
<style type="text/css">
	.st0{fill:#FFFFFF;}
</style>
<path class="st0" d="M44.5,34.8c-1.1,2.4-1.6,3.5-3,5.6c-1.9,3-4.7,6.6-8.1,6.7c-3,0-3.8-2-7.9-1.9c-4.1,0-4.9,2-8,1.9
	c-3.4,0-6-3.4-7.9-6.3c-5.4-8.3-6-18-2.6-23.1c2.4-3.7,6.1-5.8,9.7-5.8c3.6,0,5.9,2,8.8,2c2.9,0,4.6-2,8.8-2c3.1,0,6.5,1.7,8.8,4.7
	C35.4,20.7,36.7,31.8,44.5,34.8z M31.2,8.5c1.5-1.9,2.7-4.7,2.2-7.5c-2.5,0.2-5.3,1.7-7,3.8c-1.5,1.9-2.8,4.6-2.3,7.3
	C26.8,12.2,29.6,10.5,31.2,8.5z"/>
</svg>
