<svg width="47" height="48" viewBox="0 0 47 48" fill="none" xmlns="http://www.w3.org/2000/svg">
<path fill-rule="evenodd" clip-rule="evenodd" d="M23.5 48C36.4787 48 47 37.2548 47 24C47 10.7452 36.4787 0 23.5 0C10.5213 0 0 10.7452 0 24C0 37.2548 10.5213 48 23.5 48ZM34.4374 13.2811C33.2416 12.0853 31.6213 11.4113 29.9304 11.4063H17.1682C15.4772 11.4113 13.8569 12.0853 12.6612 13.2811C11.4655 14.4768 10.7915 16.0971 10.7864 17.7881V30.5502C10.7915 32.2412 11.4655 33.8615 12.6612 35.0572C13.8569 36.253 15.4772 36.9269 17.1682 36.932H29.9304C31.6213 36.9269 33.2416 36.253 34.4374 35.0572C35.6331 33.8615 36.3071 32.2412 36.3121 30.5502V17.7881C36.3071 16.0971 35.6331 14.4768 34.4374 13.2811ZM17.1682 8.854H29.9304C34.8442 8.854 38.8644 12.8742 38.8644 17.7881V30.5502C38.8644 35.4641 34.8442 39.4843 29.9304 39.4843H17.1682C12.2544 39.4843 8.23413 35.4641 8.23413 30.5502V17.7881C8.23413 12.8742 12.2544 8.854 17.1682 8.854ZM31.8447 17.7879C31.4661 17.7879 31.096 17.6757 30.7812 17.4653C30.4663 17.2549 30.221 16.956 30.0761 16.6061C29.9312 16.2563 29.8933 15.8714 29.9671 15.5001C30.041 15.1287 30.2233 14.7876 30.4911 14.5199C30.7588 14.2521 31.0999 14.0698 31.4713 13.9959C31.8426 13.9221 32.2275 13.96 32.5774 14.1049C32.9272 14.2498 33.2262 14.4951 33.4365 14.81C33.6469 15.1248 33.7591 15.4949 33.7591 15.8735C33.7597 16.1251 33.7105 16.3743 33.6145 16.6068C33.5185 16.8393 33.3775 17.0506 33.1996 17.2284C33.0218 17.4063 32.8105 17.5473 32.578 17.6433C32.3455 17.7393 32.0963 17.7885 31.8447 17.7879ZM26.3856 19.9243C25.5461 19.3633 24.559 19.0639 23.5493 19.0639C22.1957 19.0653 20.898 19.6037 19.9409 20.5608C18.9838 21.5179 18.4454 22.8156 18.444 24.1692C18.444 25.1789 18.7434 26.166 19.3044 27.0055C19.8654 27.8451 20.6627 28.4994 21.5956 28.8858C22.5284 29.2722 23.5549 29.3733 24.5453 29.1764C25.5356 28.9794 26.4453 28.4931 27.1593 27.7792C27.8732 27.0652 28.3595 26.1555 28.5565 25.1652C28.7534 24.1748 28.6523 23.1483 28.2659 22.2155C27.8795 21.2826 27.2252 20.4853 26.3856 19.9243ZM19.295 17.8021C20.5542 16.9607 22.0348 16.5116 23.5493 16.5116C25.5802 16.5116 27.5279 17.3184 28.964 18.7545C30.4001 20.1905 31.2068 22.1383 31.2068 24.1692C31.2068 25.6837 30.7577 27.1642 29.9163 28.4235C29.0749 29.6828 27.8789 30.6643 26.4797 31.2438C25.0805 31.8234 23.5408 31.9751 22.0554 31.6796C20.5699 31.3841 19.2055 30.6548 18.1346 29.5839C17.0636 28.513 16.3343 27.1485 16.0388 25.6631C15.7434 24.1777 15.895 22.638 16.4746 21.2387C17.0542 19.8395 18.0357 18.6436 19.295 17.8021Z" fill="white"/>
</svg>
