<?xml version="1.0" encoding="utf-8"?>
<!-- Generator: Adobe Illustrator 26.4.1, SVG Export Plug-In . SVG Version: 6.00 Build 0)  -->
<svg version="1.1" id="Ebene_1" xmlns="http://www.w3.org/2000/svg" xmlns:xlink="http://www.w3.org/1999/xlink" x="0px" y="0px"
	 viewBox="0 0 47 48" style="enable-background:new 0 0 47 48;" xml:space="preserve">
<style type="text/css">
	.st0{fill-rule:evenodd;clip-rule:evenodd;fill:#1582BE;}
</style>
<path class="st0" d="M23.5,48C36.5,48,47,37.3,47,24S36.5,0,23.5,0S0,10.7,0,24S10.5,48,23.5,48z M34.4,13.3
	c-1.2-1.2-2.8-1.9-4.5-1.9H17.2c-1.7,0-3.3,0.7-4.5,1.9c-1.2,1.2-1.9,2.8-1.9,4.5v12.8c0,1.7,0.7,3.3,1.9,4.5
	c1.2,1.2,2.8,1.9,4.5,1.9h12.8c1.7,0,3.3-0.7,4.5-1.9c1.2-1.2,1.9-2.8,1.9-4.5V17.8C36.3,16.1,35.6,14.5,34.4,13.3z M17.2,8.9h12.8
	c4.9,0,8.9,4,8.9,8.9v12.8c0,4.9-4,8.9-8.9,8.9H17.2c-4.9,0-8.9-4-8.9-8.9V17.8C8.2,12.9,12.3,8.9,17.2,8.9z M31.8,17.8
	c-0.4,0-0.7-0.1-1.1-0.3c-0.3-0.2-0.6-0.5-0.7-0.9c-0.1-0.3-0.2-0.7-0.1-1.1c0.1-0.4,0.3-0.7,0.5-1c0.3-0.3,0.6-0.5,1-0.5
	c0.4-0.1,0.8,0,1.1,0.1c0.3,0.1,0.6,0.4,0.9,0.7c0.2,0.3,0.3,0.7,0.3,1.1c0,0.3,0,0.5-0.1,0.7c-0.1,0.2-0.2,0.4-0.4,0.6
	c-0.2,0.2-0.4,0.3-0.6,0.4C32.3,17.7,32.1,17.8,31.8,17.8z M26.4,19.9c-0.8-0.6-1.8-0.9-2.8-0.9c-1.4,0-2.7,0.5-3.6,1.5
	s-1.5,2.3-1.5,3.6c0,1,0.3,2,0.9,2.8c0.6,0.8,1.4,1.5,2.3,1.9c0.9,0.4,2,0.5,2.9,0.3c1-0.2,1.9-0.7,2.6-1.4c0.7-0.7,1.2-1.6,1.4-2.6
	c0.2-1,0.1-2-0.3-2.9C27.9,21.3,27.2,20.5,26.4,19.9z M19.3,17.8c1.3-0.8,2.7-1.3,4.3-1.3c2,0,4,0.8,5.4,2.2
	c1.4,1.4,2.2,3.4,2.2,5.4c0,1.5-0.4,3-1.3,4.3s-2,2.2-3.4,2.8c-1.4,0.6-2.9,0.7-4.4,0.4c-1.5-0.3-2.8-1-3.9-2.1
	c-1.1-1.1-1.8-2.4-2.1-3.9c-0.3-1.5-0.1-3,0.4-4.4C17.1,19.8,18,18.6,19.3,17.8z"/>
</svg>
