<?xml version="1.0" encoding="utf-8"?>
<!-- Generator: Adobe Illustrator 26.4.1, SVG Export Plug-In . SVG Version: 6.00 Build 0)  -->
<svg version="1.1" id="Ebene_1" xmlns="http://www.w3.org/2000/svg" xmlns:xlink="http://www.w3.org/1999/xlink" x="0px" y="0px"
	 viewBox="0 0 49 49" style="enable-background:new 0 0 49 49;" xml:space="preserve">
<style type="text/css">
	.st0{fill:#1582BE;}
</style>
<g>
	<path class="st0" d="M27.1,21.5L27.1,21.5C27.1,21.5,27.1,21.5,27.1,21.5L27.1,21.5z"/>
	<path class="st0" d="M24.5,0C11,0,0,11,0,24.5S11,49,24.5,49S49,38,49,24.5S38,0,24.5,0z M18,36.6h-5.9V19H18V36.6z M15.1,16.6
		L15.1,16.6c-2,0-3.3-1.4-3.3-3c0-1.7,1.3-3,3.3-3c2,0,3.2,1.3,3.3,3C18.4,15.2,17.1,16.6,15.1,16.6z M39.1,36.6h-5.9v-9.4
		c0-2.4-0.8-4-3-4c-1.6,0-2.6,1.1-3,2.1c-0.2,0.4-0.2,0.9-0.2,1.4v9.8h-5.9c0,0,0.1-16,0-17.6h5.9v2.5c0.8-1.2,2.2-2.9,5.3-2.9
		c3.9,0,6.7,2.5,6.7,7.9V36.6z"/>
</g>
</svg>
