<svg width="49" height="49" viewBox="0 0 49 49" fill="none" xmlns="http://www.w3.org/2000/svg">
<path d="M24.5 49C38.031 49 49 38.031 49 24.5C49 10.969 38.031 0 24.5 0C10.969 0 0 10.969 0 24.5C0 38.031 10.969 49 24.5 49Z" fill="white"/>
<path d="M39.1387 26.4716V36.5724H33.2825V27.1486C33.2825 24.7823 32.437 23.1664 30.3167 23.1664C28.6986 23.1664 27.7373 24.2543 27.3128 25.3077C27.1586 25.6842 27.1189 26.207 27.1189 26.735V36.572H21.2623C21.2623 36.572 21.3409 20.6111 21.2623 18.9589H27.1193V21.4548C27.1075 21.4745 27.0909 21.4937 27.0805 21.5125H27.1193V21.4548C27.8976 20.2573 29.2855 18.5453 32.3973 18.5453C36.2502 18.5453 39.1387 21.0626 39.1387 26.4716ZM15.1357 10.4688C13.1324 10.4688 11.8218 11.7838 11.8218 13.5115C11.8218 15.2025 13.0944 16.5555 15.0589 16.5555H15.0969C17.1395 16.5555 18.4095 15.2025 18.4095 13.5115C18.3706 11.7838 17.1395 10.4688 15.1357 10.4688ZM12.1699 36.5724H18.0243V18.9589H12.1699V36.5724Z" fill="#6EA9D8"/>
</svg>
