<?xml version="1.0" encoding="UTF-8"?>
<svg id="Ebene_1" data-name="Ebene 1" xmlns="http://www.w3.org/2000/svg" version="1.1" viewBox="0 0 49 49">
  <defs>
    <style>
      .cls-1 {
        fill: #fff;
        stroke-width: 0px;
      }
    </style>
  </defs>
  <path class="cls-1" d="M24.5,0C11,0,0,11,0,24.5s11,24.5,24.5,24.5,24.5-11,24.5-24.5S38,0,24.5,0ZM18,36.6h-5.9v-17.6h5.9v17.6ZM15.1,16.6h0c-2,0-3.2-1.4-3.2-3s1.3-3,3.3-3,3.2,1.3,3.3,3c0,1.7-1.3,3-3.3,3ZM39.1,36.6h-5.9v-9.4c0-2.4-.8-4-3-4s-2.6,1.1-3,2.1c-.2.4-.2.9-.2,1.4v9.8h-5.9s0-16,0-17.6h5.9v2.5c.8-1.2,2.2-2.9,5.3-2.9s6.7,2.5,6.7,7.9v10.1Z"/>
  <path class="cls-1" d="M27.1,21.5h0s0,0,0,0h0Z"/>
</svg>