<?xml version="1.0" encoding="utf-8"?>
<!-- Generator: Adobe Illustrator 26.4.1, SVG Export Plug-In . SVG Version: 6.00 Build 0)  -->
<svg version="1.1" id="Ebene_1" xmlns="http://www.w3.org/2000/svg" xmlns:xlink="http://www.w3.org/1999/xlink" x="0px" y="0px"
	 viewBox="0 0 50 50" style="enable-background:new 0 0 50 50;" xml:space="preserve">
<style type="text/css">
	.st0{fill-rule:evenodd;clip-rule:evenodd;fill:#FFFFFF;}
</style>
<path class="st0" d="M27.6,1v16.2h-5.3v-5.4c-1.8,0-3.6,0-5.4,0c0,0-0.1,0-0.1,0c-0.2,0-0.4,0-0.6,0.1c-0.4,0.1-0.8,0.2-1.2,0.3
	c-0.5,0.2-0.9,0.4-1.3,0.7c-0.4,0.3-0.8,0.7-1.2,1.2c-0.3,0.5-0.6,1-0.7,1.5c-0.2,0.6-0.3,1.2-0.2,1.8c0,0.6,0.2,1.2,0.4,1.8
	c0.2,0.6,0.6,1.2,1.1,1.7c0.5,0.5,1.1,0.9,1.7,1.2c0.4,0.2,0.9,0.3,1.4,0.4c0.3,0,0.5,0.1,0.8,0.1c5.4,0,10.7,0,16.1,0
	c0.2,0,0.3,0,0.5,0c0.3,0,0.7,0,1,0.1c1,0.1,2,0.4,2.9,0.8c0.7,0.3,1.3,0.6,1.9,1.1c0.6,0.4,1.1,0.8,1.5,1.3c0.5,0.5,0.9,1,1.3,1.6
	c0.4,0.5,0.7,1.1,0.9,1.7c0.5,1.1,0.7,2.4,0.8,3.6c0,1.1-0.1,2.2-0.4,3.3c-0.3,1-0.7,2-1.3,2.9c-0.7,1-1.5,1.9-2.4,2.6
	c-0.9,0.7-1.8,1.2-2.9,1.6c-0.8,0.3-1.6,0.5-2.4,0.6c-0.3,0-0.6,0.1-0.9,0.1c-0.1,0-0.3,0-0.4,0h-5.4v5.4h-5.3V33h5.3v5.4
	c1.8,0,3.6,0,5.4,0c0.2,0,0.4,0,0.7,0c0.4-0.1,0.8-0.1,1.2-0.3c0.5-0.2,1-0.4,1.4-0.8c0.4-0.3,0.8-0.7,1.1-1.2
	c0.3-0.5,0.6-1,0.7-1.5c0.2-0.6,0.3-1.2,0.2-1.8c0-0.6-0.2-1.2-0.4-1.8c-0.2-0.6-0.6-1.2-1.1-1.7c-0.5-0.5-1.1-0.9-1.7-1.2
	c-0.5-0.2-0.9-0.3-1.4-0.4c-0.2,0-0.5-0.1-0.7-0.1c-5.4,0-10.7,0-16.1,0c-0.2,0-0.4,0-0.5,0c-0.3,0-0.7,0-1-0.1
	c-1-0.1-1.9-0.4-2.8-0.8c-0.6-0.3-1.2-0.6-1.8-1c-0.6-0.4-1.1-0.9-1.6-1.4c-0.5-0.5-0.9-1-1.2-1.6c-0.4-0.6-0.7-1.2-0.9-1.8
	c-0.2-0.6-0.4-1.2-0.5-1.8c-0.1-0.6-0.2-1.2-0.2-1.8c-0.1-1.1,0.1-2.3,0.4-3.4c0.3-1,0.7-1.9,1.2-2.8c0.6-1,1.4-1.9,2.4-2.6
	c0.9-0.7,1.9-1.3,3-1.7c0.8-0.3,1.6-0.5,2.4-0.6c0.3,0,0.5-0.1,0.8-0.1c0.1,0,0.3,0,0.4,0h5.4V1H27.6z"/>
</svg>
