<svg width="48" height="48" viewBox="0 0 48 48" fill="none" xmlns="http://www.w3.org/2000/svg">
<path fill-rule="evenodd" clip-rule="evenodd" d="M24 48C37.2548 48 48 37.2548 48 24C48 10.7452 37.2548 0 24 0C10.7452 0 0 10.7452 0 24C0 37.2548 10.7452 48 24 48ZM37.5644 16.0074C38.9341 15.8443 40.2727 15.4821 41.5378 14.9324C40.606 16.304 39.437 17.4985 38.0858 18.4596C38.0998 18.7477 38.1075 19.0428 38.1075 19.3379C38.1075 28.3388 31.1458 38.7168 18.4027 38.7168C14.6502 38.727 10.9738 37.6588 7.81104 35.6392C8.35907 35.7039 8.9104 35.7368 9.46224 35.7376C12.5712 35.7452 15.5945 34.7194 18.057 32.8216C15.0265 32.7654 12.4681 30.798 11.5891 28.0929C12.0174 28.1777 12.4531 28.2201 12.8897 28.2193C13.5051 28.2193 14.1178 28.1389 14.7124 27.9804C11.5505 27.3551 9.16151 24.6078 9.16151 21.3053V21.221C10.1267 21.7534 11.206 22.0451 12.3079 22.0712C10.448 20.8486 9.21632 18.7618 9.21632 16.4009C9.21782 15.1966 9.54275 14.0148 10.1572 12.979C11.9085 15.0927 14.0817 16.8175 16.5378 18.0432C18.9939 19.2688 21.6789 19.9683 24.4208 20.0968C24.2995 19.5882 24.2396 19.0668 24.2423 18.544C24.2423 14.7848 27.3367 11.7354 31.1605 11.7354C32.105 11.7336 33.0399 11.9239 33.9085 12.2948C34.7771 12.6656 35.5612 13.2092 36.2132 13.8925C37.7615 13.5954 39.248 13.0371 40.6089 12.2413C40.0864 13.8254 39.0039 15.1645 37.5644 16.0074Z" fill="white"/>
</svg>
