<?xml version="1.0" encoding="UTF-8"?>
<svg id="Ebene_1" data-name="Ebene 1" xmlns="http://www.w3.org/2000/svg" version="1.1" viewBox="0 0 48 48">
  <defs>
    <style>
      .cls-1 {
        fill: #fff;
        fill-rule: evenodd;
        stroke-width: 0px;
      }
    </style>
  </defs>
  <polygon class="cls-1" points="24.3 21.6 16.7 10.8 12.7 10.8 22.1 24.2 23.2 25.9 23.2 25.9 31.3 37.4 35.3 37.4 25.5 23.3 24.3 21.6"/>
  <path class="cls-1" d="M24,0C10.7,0,0,10.7,0,24s10.7,24,24,24,24-10.7,24-24S37.3,0,24,0ZM30,39.3l-8.1-11.8-10.2,11.8h-2.6l11.6-13.5L9.1,8.8h8.9l7.7,11.2,9.6-11.2h2.6l-11.1,12.9h0l12.1,17.6h-8.9Z"/>
</svg>