<?xml version="1.0" encoding="utf-8"?>
<!-- Generator: Adobe Illustrator 26.4.1, SVG Export Plug-In . SVG Version: 6.00 Build 0)  -->
<svg version="1.1" id="Ebene_1" xmlns="http://www.w3.org/2000/svg" xmlns:xlink="http://www.w3.org/1999/xlink" x="0px" y="0px"
	 viewBox="0 0 48 48" style="enable-background:new 0 0 48 48;" xml:space="preserve">
<style type="text/css">
	.st0{fill-rule:evenodd;clip-rule:evenodd;fill:#1582BE;}
</style>
<path class="st0" d="M24,48c13.3,0,24-10.7,24-24S37.3,0,24,0S0,10.7,0,24S10.7,48,24,48z M37.6,16c1.4-0.2,2.7-0.5,4-1.1
	c-0.9,1.4-2.1,2.6-3.5,3.5c0,0.3,0,0.6,0,0.9c0,9-7,19.4-19.7,19.4c-3.8,0-7.4-1.1-10.6-3.1c0.5,0.1,1.1,0.1,1.7,0.1
	c3.1,0,6.1-1,8.6-2.9c-3-0.1-5.6-2-6.5-4.7c0.4,0.1,0.9,0.1,1.3,0.1c0.6,0,1.2-0.1,1.8-0.2c-3.2-0.6-5.6-3.4-5.6-6.7v-0.1
	c1,0.5,2,0.8,3.1,0.9c-1.9-1.2-3.1-3.3-3.1-5.7c0-1.2,0.3-2.4,0.9-3.4c1.8,2.1,3.9,3.8,6.4,5.1c2.5,1.2,5.1,1.9,7.9,2.1
	c-0.1-0.5-0.2-1-0.2-1.6c0-3.8,3.1-6.8,6.9-6.8c0.9,0,1.9,0.2,2.7,0.6c0.9,0.4,1.7,0.9,2.3,1.6c1.5-0.3,3-0.9,4.4-1.7
	C40.1,13.8,39,15.2,37.6,16z"/>
</svg>
