<?xml version="1.0" encoding="UTF-8"?>
<svg id="Ebene_1" data-name="Ebene 1" xmlns="http://www.w3.org/2000/svg" version="1.1" viewBox="0 0 48 48">
  <defs>
    <style>
      .cls-1 {
        fill: #1582be;
        fill-rule: evenodd;
      }

      .cls-1, .cls-2 {
        stroke-width: 0px;
      }

      .cls-2 {
        fill: #fff;
      }
    </style>
  </defs>
  <path class="cls-1" d="M24,48c13.3,0,24-10.7,24-24S37.3,0,24,0,0,10.7,0,24s10.7,24,24,24Z"/>
  <path class="cls-2" d="M26.7,22.6l10.6-12.3h-2.5l-9.2,10.7-7.3-10.7h-8.4l11.1,16.1-11.1,12.9h2.5l9.7-11.3,7.7,11.3h8.4l-11.5-16.7h0ZM23.3,26.6l-1.1-1.6-8.9-12.8h3.8l7.2,10.3,1.1,1.6,9.4,13.4h-3.8l-7.6-10.9h0Z"/>
</svg>