<?xml version="1.0" encoding="utf-8"?>
<!-- Generator: Adobe Illustrator 26.4.1, SVG Export Plug-In . SVG Version: 6.00 Build 0)  -->
<svg version="1.1" id="Ebene_1" xmlns="http://www.w3.org/2000/svg" xmlns:xlink="http://www.w3.org/1999/xlink" x="0px" y="0px"
	 viewBox="0 0 143.2 145.9" style="enable-background:new 0 0 143.2 145.9;" xml:space="preserve">
<style type="text/css">
	.st0{fill:#008BCE;}
	.st1{fill:#6CA8D9;}
	.st2{fill:#B0D8F4;}
</style>
<g>
	<g>
		<polygon class="st0" points="70.4,130.9 28,88.5 82.3,34.2 		"/>
		<polygon class="st1" points="143.2,78.4 143.2,143.2 69.8,143.2 		"/>
		<path class="st1" d="M87,0c0,24.5-19.9,44.3-44.3,44.3V0H87"/>
		<path class="st0" d="M90.8,0c28.9,0,52.3,23.4,52.3,52.3H90.8V0z"/>
		<path class="st2" d="M90.2,115.9c-12.9-14.7-11.5-37,3.1-49.9s37-11.5,49.9,3.1L90.2,115.9z"/>
		<path class="st2" d="M37.3,0C16.7,0,0,16.7,0,37.3c0,20.6,16.7,37.3,37.3,37.3V0z"/>
		<path class="st1" d="M66.3,135c-14.6,14.6-38.2,14.6-52.7,0s-14.6-38.2,0-52.7L66.3,135z"/>
	</g>
</g>
</svg>
