<?xml version="1.0" standalone="no"?>
<!DOCTYPE svg PUBLIC "-//W3C//DTD SVG 20010904//EN"
 "http://www.w3.org/TR/2001/REC-SVG-20010904/DTD/svg10.dtd">
<svg version="1.0" xmlns="http://www.w3.org/2000/svg"
 width="584.000000pt" height="584.000000pt" viewBox="0 0 584.000000 584.000000"
 preserveAspectRatio="xMidYMid meet">
<metadata>
Created by potrace 1.14, written by Peter Selinger 2001-2017
</metadata>
<g transform="translate(0.000000,584.000000) scale(0.100000,-0.100000)"
fill="#000000" stroke="none">
<path d="M1407 5834 c-1 -1 -24 -4 -52 -8 -27 -3 -61 -8 -75 -11 -14 -3 -36
-7 -50 -10 -109 -20 -296 -92 -415 -160 -404 -231 -672 -629 -743 -1105 -9
-61 -9 -322 1 -390 13 -95 38 -204 49 -217 6 -7 8 -13 4 -13 -20 0 99 -266
168 -375 125 -195 325 -387 509 -488 28 -16 58 -34 65 -39 6 -6 12 -7 12 -3 0
5 8 1 18 -7 9 -9 60 -32 112 -51 113 -42 173 -59 290 -82 36 -7 126 -16 193
-19 l57 -3 1 31 c1 38 1 2926 0 2944 -1 10 -19 12 -72 10 -39 -1 -71 -3 -72
-4z"/>
<path d="M1770 5718 c0 -68 -1 -464 -1 -880 0 -416 2 -762 5 -767 4 -6 12 -8
19 -6 7 2 55 6 107 9 52 3 106 8 120 10 14 3 42 7 64 10 21 4 41 8 45 10 3 2
22 7 41 10 109 18 425 142 468 183 7 7 18 13 23 13 5 0 32 16 59 35 27 19 54
35 59 35 5 0 11 3 13 8 2 4 30 27 63 52 77 59 229 208 294 290 28 36 56 71 62
78 31 38 119 190 160 277 61 130 120 307 135 405 5 32 12 65 14 65 3 0 9 68
15 178 l7 107 -886 0 -886 0 0 -122z"/>
<path d="M3694 4794 l1 -1048 1042 0 c687 -1 1044 2 1046 9 2 6 3 37 1 70 -1
53 -5 91 -19 210 -7 62 -16 120 -21 135 -3 8 -8 26 -10 40 -36 196 -164 496
-297 695 -94 141 -260 330 -369 421 -106 90 -297 224 -316 224 -6 0 -12 4 -14
8 -3 7 -178 96 -248 125 -51 21 -176 66 -203 72 -12 2 -65 15 -117 29 -52 13
-122 27 -155 31 -33 4 -71 9 -85 11 -14 2 -73 7 -131 10 l-105 5 0 -1047z"/>
<path d="M2263 3382 l-1082 -1085 845 -845 c464 -465 846 -843 848 -841 4 4
13 70 21 149 2 14 5 43 9 65 6 44 15 111 21 165 2 19 6 51 9 70 2 19 7 62 11
95 4 33 9 68 11 77 1 9 6 48 9 85 4 37 9 75 10 83 5 31 19 139 30 240 2 19 6
55 9 80 3 25 9 67 12 94 3 27 7 56 9 65 1 9 6 50 10 91 4 41 9 84 11 95 5 25
11 73 19 145 3 30 7 71 10 90 2 19 7 55 10 80 4 25 8 59 11 75 2 17 6 50 8 75
3 25 7 59 10 75 4 27 8 58 22 185 2 19 6 51 9 70 3 19 8 55 10 80 6 47 12 95
20 158 3 21 7 60 10 87 3 28 6 59 9 70 3 18 10 71 21 180 2 22 6 49 9 60 2 12
7 52 10 90 4 39 9 88 13 110 3 22 7 51 8 65 2 14 6 46 9 73 3 26 9 68 12 95 3
26 7 58 9 72 1 14 6 50 10 80 4 30 9 71 11 90 3 37 15 124 19 150 6 35 16 150
13 149 -2 -1 -490 -490 -1085 -1087z"/>
<path d="M4589 3546 c-2 -2 -29 -7 -59 -10 -57 -7 -95 -13 -95 -16 0 -1 -9 -3
-20 -4 -11 -2 -47 -11 -80 -20 -33 -10 -61 -18 -62 -17 -3 0 -33 -12 -133 -56
-19 -8 -42 -19 -50 -24 -8 -5 -25 -13 -38 -19 -31 -13 -169 -106 -212 -143
-74 -63 -157 -146 -203 -203 -26 -32 -55 -67 -63 -77 -7 -9 -14 -20 -14 -24 0
-3 -10 -20 -23 -37 -13 -17 -39 -62 -59 -101 -249 -483 -208 -1044 108 -1488
62 -86 95 -114 106 -89 2 4 57 54 123 112 66 58 136 119 155 136 19 17 60 53
91 80 30 27 87 78 127 113 39 35 80 71 90 80 11 9 48 42 83 73 35 31 73 65 85
75 12 10 50 44 85 75 35 31 73 65 85 75 12 10 52 45 89 78 37 33 77 69 90 80
12 11 54 47 91 81 73 65 135 119 254 224 72 64 95 84 155 138 17 15 61 54 100
87 38 33 76 67 85 75 22 20 79 70 175 155 44 38 92 81 108 95 l27 25 -62 64
c-139 139 -340 266 -524 329 -115 40 -161 52 -256 68 -42 7 -353 16 -359 10z"/>
<path d="M5739 2657 c-26 -24 -62 -56 -80 -71 -19 -16 -57 -49 -85 -75 -28
-25 -79 -71 -114 -101 -34 -30 -68 -59 -74 -65 -6 -5 -50 -44 -96 -85 -47 -41
-90 -79 -96 -85 -30 -28 -153 -136 -184 -161 -19 -16 -46 -40 -60 -54 -15 -14
-58 -52 -96 -85 -38 -33 -83 -73 -101 -90 -18 -16 -39 -35 -46 -40 -27 -23
-184 -162 -217 -192 -19 -17 -45 -40 -56 -50 -91 -78 -133 -114 -155 -134 -14
-13 -53 -49 -88 -79 -35 -30 -73 -64 -85 -75 -12 -11 -55 -49 -96 -85 -40 -36
-78 -70 -84 -75 -6 -6 -67 -60 -136 -120 -69 -60 -130 -114 -136 -120 -6 -5
-42 -37 -80 -70 -38 -33 -78 -69 -89 -80 -12 -11 -37 -33 -56 -49 -30 -25
-157 -137 -199 -176 -8 -8 -34 -30 -55 -49 -58 -49 -161 -141 -201 -178 -19
-18 -36 -33 -39 -33 -2 0 -21 -16 -42 -35 l-38 -35 35 0 c188 -3 2893 0 2896
3 2 2 3 585 2 1295 l-3 1292 -46 -43z"/>
<path d="M567 2506 c-79 -83 -156 -186 -198 -266 -13 -25 -29 -52 -37 -62 -7
-9 -15 -22 -16 -30 -2 -7 -13 -35 -26 -63 -29 -66 -70 -185 -63 -185 3 0 0 -7
-7 -15 -7 -8 -10 -15 -7 -15 3 0 1 -16 -5 -36 -14 -53 -18 -74 -24 -124 -3
-25 -7 -58 -9 -75 -5 -40 -6 -252 -1 -290 31 -241 101 -452 203 -613 18 -29
33 -54 33 -57 0 -3 7 -13 14 -22 8 -10 33 -42 54 -71 88 -118 230 -250 366
-341 83 -55 242 -134 279 -140 4 0 20 -7 35 -15 33 -17 138 -46 222 -61 14 -2
41 -7 60 -12 87 -18 477 -6 520 17 8 4 20 8 25 9 6 1 26 4 45 8 19 4 37 7 40
8 19 3 124 42 168 61 29 13 57 24 62 24 6 0 10 4 10 9 0 5 12 12 28 16 40 10
238 144 311 212 l64 59 -1052 1052 c-579 579 -1054 1052 -1057 1052 -2 0 -19
-15 -37 -34z"/>
</g>
</svg>
