<svg width="16" height="16" viewBox="0 0 16 16" fill="none" xmlns="http://www.w3.org/2000/svg">
<g clip-path="url(#clip0_524_1160)">
<path d="M9.49548 1.23518L15.6789 7.47038C15.7798 7.56286 15.8602 7.67528 15.9153 7.80051C15.9704 7.92574 15.9988 8.06105 15.9988 8.19785C15.9988 8.33465 15.9704 8.46996 15.9153 8.59519C15.8602 8.72042 15.7798 8.83284 15.6789 8.92532L9.49548 15.1605C9.31145 15.3406 9.06967 15.4499 8.81288 15.4689C8.55609 15.4879 8.30084 15.4155 8.09228 15.2645C7.96701 15.1804 7.86269 15.0687 7.78732 14.938C7.71195 14.8074 7.66754 14.6611 7.65749 14.5106C7.64745 14.36 7.67205 14.2092 7.72939 14.0697C7.78673 13.9301 7.87529 13.8056 7.98828 13.7056L12.4555 9.23732L1.44161 9.23732C1.16579 9.23732 0.901257 9.12775 0.70622 8.93271C0.511182 8.73767 0.401611 8.47314 0.401611 8.19732C0.401611 7.92149 0.511182 7.65696 0.70622 7.46193C0.901258 7.26689 1.16579 7.15732 1.44161 7.15732L12.4555 7.15732L7.98881 2.69012C7.8758 2.59017 7.7872 2.46565 7.72981 2.32613C7.67243 2.1866 7.64778 2.03578 7.65778 1.88525C7.66777 1.73471 7.71213 1.58847 7.78745 1.45775C7.86277 1.32703 7.96705 1.21532 8.09228 1.13118C8.30084 0.980173 8.55609 0.907783 8.81288 0.926815C9.06967 0.945847 9.31145 1.05508 9.49548 1.23518Z" fill="#1582BE"/>
</g>
<defs>
<clipPath id="clip0_524_1160">
<rect width="16" height="16" fill="white"/>
</clipPath>
</defs>
</svg>
