<?xml version="1.0" encoding="UTF-8"?>
<svg id="Ebene_1" xmlns="http://www.w3.org/2000/svg" viewBox="0 0 550.63 825.47">
  <defs>
    <style>
      .cls-1 {
        fill: #fff;
      }
    </style>
  </defs>
  <path class="cls-1" d="M200.09,540.14c-35.6,0-69.45-12.3-96.37-33.87v297.88c0,5.1,2.53,9.67,7.52,13.58,6.18,4.85,15.19,7.74,24.1,7.74,5.81,0,14.39-1.21,22.28-6.98l60.23-44.03c16.07-11.75,36.44-18.22,57.35-18.22s41.28,6.47,57.35,18.22l60.23,44.03c7.89,5.77,16.47,6.98,22.28,6.98,8.91,0,17.92-2.9,24.1-7.75,4.99-3.91,7.52-8.48,7.52-13.58v-297.49c-26.84,21.33-60.49,33.49-95.88,33.49h-150.7Z"/>
  <path class="cls-1" d="M533.98,192.84l-75.35-130.51C436.43,23.89,395.06,0,350.66,0h-150.7c-44.4,0-85.77,23.89-107.97,62.33L16.65,192.84c-22.2,38.45-22.2,86.22,0,124.67l58.4,101.15,13.84,23.97,3.11,5.39c3.43,5.94,7.32,11.52,11.6,16.73,23.45,28.52,58.83,45.6,96.37,45.6h150.7c37.28,0,72.43-16.85,95.88-45.02,4.48-5.38,8.53-11.16,12.09-17.32l2.62-4.54,13.97-24.2,58.76-101.77c22.2-38.45,22.2-86.22,0-124.67ZM385.8,277.93l27.31,28.21c18.02,18.61.37,49.19-24.76,42.89l-38.08-9.55c-17.13-4.29-34.57,5.78-39.42,22.76l-10.78,37.76c-7.11,24.91-42.41,24.91-49.52,0l-10.77-37.76c-4.85-16.98-22.29-27.05-39.42-22.76l-38.08,9.55c-25.13,6.3-42.78-24.28-24.76-42.89l27.31-28.21c12.28-12.69,12.28-32.83,0-45.51l-27.31-28.21c-18.02-18.61-.37-49.19,24.76-42.89l38.08,9.55c17.13,4.29,34.57-5.78,39.42-22.76l10.77-37.76c7.11-24.91,42.41-24.91,49.52,0l10.78,37.76c4.85,16.98,22.29,27.05,39.42,22.76l38.08-9.55c25.13-6.3,42.78,24.28,24.76,42.89l-27.31,28.21c-12.28,12.69-12.28,32.83,0,45.51Z"/>
</svg>