<svg width="32" height="26" viewBox="0 0 32 26" fill="none" xmlns="http://www.w3.org/2000/svg">
<path d="M27.7487 0.284912H3.9641C2.9131 0.286036 1.90547 0.704043 1.1623 1.44721C0.41913 2.19038 0.00112427 3.19801 0 4.24901V21.238C0.00112427 22.289 0.41913 23.2966 1.1623 24.0398C1.90547 24.783 2.9131 25.201 3.9641 25.2021H27.7487C28.7997 25.201 29.8073 24.783 30.5505 24.0398C31.2937 23.2966 31.7117 22.289 31.7128 21.238V4.24901C31.7117 3.19801 31.2937 2.19038 30.5505 1.44721C29.8073 0.704043 28.7997 0.286036 27.7487 0.284912ZM26.7449 6.84196L16.5515 14.7702C16.3528 14.9247 16.1082 15.0086 15.8564 15.0086C15.6046 15.0086 15.36 14.9247 15.1613 14.7702L4.96787 6.84196C4.8481 6.75152 4.74751 6.63817 4.67193 6.50852C4.59635 6.37886 4.54729 6.23548 4.5276 6.0867C4.50792 5.93792 4.51799 5.78671 4.55725 5.64186C4.59651 5.49701 4.66416 5.3614 4.75628 5.24293C4.8484 5.12445 4.96315 5.02546 5.09385 4.95171C5.22456 4.87796 5.36862 4.83093 5.51766 4.81334C5.6667 4.79574 5.81776 4.80795 5.96204 4.84924C6.10632 4.89053 6.24096 4.96009 6.35813 5.05387L15.8564 12.4412L25.3547 5.05387C25.5922 4.87451 25.8907 4.79584 26.1858 4.83488C26.4808 4.87392 26.7487 5.02753 26.9314 5.26249C27.114 5.49745 27.1969 5.79488 27.162 6.09045C27.1271 6.38602 26.9773 6.65599 26.7449 6.84196Z" fill="#1582BE"/>
</svg>
