<svg width="280" height="135" viewBox="0 0 280 135" fill="none" xmlns="http://www.w3.org/2000/svg">
<mask id="mask0_1477_2128" style="mask-type:luminance" maskUnits="userSpaceOnUse" x="0" y="0" width="280" height="135">
<path d="M279.243 0H0.756836V134.258H279.243V0Z" fill="white"/>
</mask>
<g mask="url(#mask0_1477_2128)">
<path d="M174.85 49.5322C174.44 49.5322 174.034 49.613 173.656 49.7698C173.277 49.9267 172.933 50.1567 172.643 50.4465C172.353 50.7364 172.123 51.0805 171.966 51.4592C171.809 51.838 171.729 52.2439 171.729 52.6538V76.5073C171.728 84.9096 168.391 92.9679 162.449 98.9093C156.508 104.851 148.45 108.189 140.047 108.189H139.744C131.342 108.188 123.284 104.85 117.343 98.9091C111.402 92.9677 108.064 84.9095 108.064 76.5073V52.6538C108.064 51.826 107.735 51.0321 107.15 50.4467C106.564 49.8614 105.77 49.5325 104.943 49.5325C104.115 49.5325 103.321 49.8614 102.735 50.4467C102.15 51.0321 101.821 51.826 101.821 52.6538V77.4077C101.821 97.4335 116.779 113.872 136.055 115.815V126.437H120.344C119.307 126.437 118.313 126.849 117.579 127.583C116.846 128.316 116.434 129.311 116.434 130.348C116.434 131.385 116.846 132.38 117.579 133.113C118.313 133.847 119.307 134.259 120.344 134.259H159.449C160.486 134.259 161.481 133.847 162.214 133.113C162.947 132.38 163.359 131.385 163.359 130.348C163.359 129.311 162.947 128.316 162.214 127.583C161.481 126.849 160.486 126.437 159.449 126.437H143.738V115.817C153.123 114.864 161.82 110.462 168.144 103.463C174.469 96.4647 177.971 87.3677 177.971 77.9346V52.6538C177.971 51.8263 177.643 51.0326 177.058 50.4472C176.473 49.8618 175.679 49.5327 174.852 49.5322" fill="#1582BE"/>
<path d="M139.896 99.0642C142.977 99.0642 146.028 98.4574 148.875 97.2783C151.722 96.0991 154.308 94.3709 156.487 92.1922C158.666 90.0134 160.394 87.4269 161.573 84.5803C162.752 81.7337 163.359 78.6827 163.359 75.6015V70.9817H151.248C150.831 70.9817 150.419 70.8996 150.034 70.7402C149.649 70.5808 149.3 70.3472 149.005 70.0526C148.711 69.7581 148.477 69.4084 148.317 69.0236C148.158 68.6388 148.076 68.2263 148.076 67.8098C148.076 67.3932 148.158 66.9808 148.317 66.596C148.477 66.2111 148.711 65.8615 149.005 65.5669C149.3 65.2724 149.649 65.0388 150.034 64.8794C150.419 64.72 150.831 64.6379 151.248 64.6379H163.359V58.7969H151.248C150.407 58.7969 149.6 58.4627 149.005 57.8678C148.41 57.273 148.076 56.4662 148.076 55.6249C148.076 54.7836 148.41 53.9768 149.005 53.3819C149.6 52.7871 150.407 52.4529 151.248 52.4529H163.359V46.6106H151.248C150.407 46.6106 149.6 46.2764 149.005 45.6816C148.41 45.0867 148.076 44.2799 148.076 43.4386C148.076 42.5973 148.41 41.7905 149.005 41.1957C149.6 40.6008 150.407 40.2666 151.248 40.2666H163.359V34.4265H151.248C150.407 34.4265 149.6 34.0923 149.005 33.4974C148.41 32.9026 148.076 32.0957 148.076 31.2545C148.076 30.4132 148.41 29.6064 149.005 29.0115C149.6 28.4166 150.407 28.0824 151.248 28.0824H163.359V23.4626C163.359 17.2399 160.887 11.2721 156.487 6.87203C152.087 2.47194 146.119 0 139.896 0C133.674 0 127.706 2.47194 123.306 6.87203C118.906 11.2721 116.434 17.2399 116.434 23.4626V28.0824H128.545C129.386 28.0824 130.193 28.4166 130.788 29.0115C131.383 29.6064 131.717 30.4132 131.717 31.2545C131.717 32.0957 131.383 32.9026 130.788 33.4974C130.193 34.0923 129.386 34.4265 128.545 34.4265H116.434V40.2675H128.545C129.386 40.2675 130.193 40.6017 130.788 41.1966C131.383 41.7914 131.717 42.5983 131.717 43.4395C131.717 44.2808 131.383 45.0876 130.788 45.6825C130.193 46.2774 129.386 46.6116 128.545 46.6116H116.434V52.4529H128.545C129.386 52.4529 130.193 52.7871 130.788 53.3819C131.383 53.9768 131.717 54.7836 131.717 55.6249C131.717 56.4662 131.383 57.273 130.788 57.8678C130.193 58.4627 129.386 58.7969 128.545 58.7969H116.434V64.6379H128.545C129.386 64.6379 130.193 64.9721 130.788 65.5669C131.382 66.1618 131.717 66.9686 131.717 67.8098C131.717 68.651 131.382 69.4578 130.788 70.0526C130.193 70.6475 129.386 70.9817 128.545 70.9817H116.434V75.6015C116.434 78.6827 117.04 81.7337 118.22 84.5804C119.399 87.427 121.127 90.0135 123.306 92.1923C125.484 94.371 128.071 96.0992 130.917 97.2783C133.764 98.4574 136.815 99.0643 139.896 99.0642Z" fill="#1582BE"/>
<path d="M47.1733 87.4817C46.2263 87.4817 45.318 87.1055 44.6484 86.4359C43.9787 85.7662 43.6025 84.858 43.6025 83.911V50.3481C43.6025 49.4011 43.9787 48.4928 44.6484 47.8232C45.318 47.1535 46.2263 46.7773 47.1733 46.7773C48.1203 46.7773 49.0285 47.1535 49.6982 47.8232C50.3678 48.4928 50.744 49.4011 50.744 50.3481V83.911C50.744 84.3799 50.6517 84.8442 50.4722 85.2774C50.2928 85.7107 50.0298 86.1043 49.6982 86.4359C49.3666 86.7674 48.973 87.0305 48.5398 87.2099C48.1065 87.3894 47.6422 87.4817 47.1733 87.4817Z" fill="#1582BE"/>
<path d="M61.4562 101.406C60.5093 101.406 59.6012 101.03 58.9316 100.36C58.262 99.6906 57.8858 98.7825 57.8857 97.8356V36.4222C57.8857 35.4752 58.2619 34.567 58.9315 33.8974C59.6012 33.2277 60.5094 32.8516 61.4563 32.8516C62.4033 32.8516 63.3115 33.2277 63.9811 33.8974C64.6507 34.567 65.0269 35.4752 65.0269 36.4222V97.8356C65.0269 98.7827 64.6507 99.6909 63.9811 100.361C63.3114 101.03 62.4032 101.406 61.4562 101.406" fill="#1582BE"/>
<path d="M75.7384 82.483C75.2695 82.483 74.8052 82.3906 74.372 82.2111C73.9388 82.0317 73.5452 81.7687 73.2136 81.4371C72.8821 81.1055 72.6191 80.7119 72.4397 80.2787C72.2603 79.8454 72.1679 79.3811 72.168 78.9122V55.3468C72.168 54.3999 72.5441 53.4917 73.2137 52.8221C73.8833 52.1525 74.7915 51.7764 75.7384 51.7764C76.6854 51.7764 77.5935 52.1525 78.2631 52.8221C78.9327 53.4917 79.3089 54.3999 79.3089 55.3468V78.9122C79.3089 79.3811 79.2166 79.8454 79.0372 80.2787C78.8577 80.7119 78.5948 81.1055 78.2632 81.4371C77.9317 81.7687 77.538 82.0317 77.1048 82.2111C76.6716 82.3906 76.2073 82.483 75.7384 82.483Z" fill="#1582BE"/>
<path d="M90.02 94.622C89.551 94.6221 89.0867 94.5297 88.6535 94.3503C88.2202 94.1709 87.8266 93.9079 87.495 93.5763C87.1634 93.2447 86.9004 92.851 86.7209 92.4178C86.5415 91.9846 86.4492 91.5202 86.4492 91.0513V43.2063C86.4492 42.2594 86.8254 41.3512 87.495 40.6815C88.1646 40.0119 89.0728 39.6357 90.0198 39.6357C90.9668 39.6357 91.875 40.0119 92.5446 40.6815C93.2142 41.3512 93.5904 42.2594 93.5904 43.2063V91.0513C93.5904 91.5202 93.4981 91.9845 93.3187 92.4177C93.1393 92.851 92.8763 93.2446 92.5448 93.5762C92.2132 93.9078 91.8196 94.1708 91.3864 94.3502C90.9532 94.5297 90.4889 94.622 90.02 94.622Z" fill="#1582BE"/>
<path d="M7.89772 67.1291C7.8979 67.8353 7.68865 68.5257 7.29644 69.113C6.90422 69.7003 6.34666 70.158 5.69426 70.4284C5.04186 70.6988 4.32394 70.7696 3.63128 70.632C2.93862 70.4943 2.30234 70.1543 1.80292 69.655C1.30349 69.1557 0.963349 68.5195 0.825509 67.8269C0.687669 67.1343 0.758323 66.4163 1.02853 65.7639C1.29875 65.1114 1.75638 64.5537 2.34355 64.1614C2.93073 63.769 3.62107 63.5596 4.32728 63.5596C4.79618 63.5596 5.26049 63.6519 5.6937 63.8314C6.1269 64.0108 6.52052 64.2739 6.85207 64.6054C7.18362 64.937 7.44661 65.3306 7.62603 65.7639C7.80544 66.1971 7.89776 66.6614 7.89772 67.1303" fill="#1582BE"/>
<path d="M22.18 67.1293C22.1799 67.8355 21.9704 68.5257 21.5781 69.1129C21.1857 69.7 20.6281 70.1576 19.9757 70.4278C19.3233 70.698 18.6054 70.7686 17.9129 70.6309C17.2203 70.4931 16.5841 70.153 16.0848 69.6537C15.5855 69.1544 15.2455 68.5182 15.1077 67.8257C14.9699 67.1331 15.0406 66.4152 15.3108 65.7628C15.581 65.1104 16.0386 64.5528 16.6257 64.1604C17.2128 63.7681 17.9031 63.5587 18.6092 63.5586C19.5562 63.5586 20.4645 63.9348 21.1341 64.6044C21.8037 65.2741 22.18 66.1823 22.18 67.1293Z" fill="#1582BE"/>
<path d="M36.4622 67.1291C36.4624 67.8353 36.2531 68.5257 35.8609 69.113C35.4687 69.7003 34.9111 70.158 34.2587 70.4284C33.6063 70.6988 32.8884 70.7696 32.1957 70.632C31.5031 70.4943 30.8668 70.1543 30.3674 69.655C29.8679 69.1557 29.5278 68.5195 29.39 67.8269C29.2521 67.1343 29.3228 66.4163 29.593 65.7639C29.8632 65.1114 30.3208 64.5537 30.908 64.1614C31.4952 63.769 32.1855 63.5596 32.8917 63.5596C33.3606 63.5596 33.8249 63.6519 34.2582 63.8314C34.6914 64.0108 35.085 64.2739 35.4165 64.6054C35.7481 64.937 36.0111 65.3306 36.1905 65.7639C36.3699 66.1971 36.4622 66.6614 36.4622 67.1303" fill="#1582BE"/>
<path d="M232.826 87.4817C233.773 87.4816 234.681 87.1054 235.351 86.4358C236.02 85.7661 236.396 84.8579 236.396 83.911V50.3481C236.396 49.4011 236.02 48.4928 235.351 47.8232C234.681 47.1535 233.773 46.7773 232.826 46.7773C231.879 46.7773 230.97 47.1535 230.301 47.8232C229.631 48.4928 229.255 49.4011 229.255 50.3481V83.911C229.255 84.3799 229.347 84.8443 229.527 85.2775C229.706 85.7108 229.969 86.1044 230.301 86.436C230.633 86.7676 231.026 87.0306 231.46 87.21C231.893 87.3894 232.357 87.4818 232.826 87.4817" fill="#1582BE"/>
<path d="M218.544 101.407C219.013 101.407 219.477 101.314 219.911 101.135C220.344 100.955 220.737 100.692 221.069 100.361C221.4 100.029 221.663 99.6355 221.843 99.2023C222.022 98.7691 222.115 98.3048 222.115 97.8359V36.423C222.115 35.476 221.738 34.5679 221.069 33.8983C220.399 33.2287 219.491 32.8525 218.544 32.8525C217.597 32.8525 216.689 33.2287 216.019 33.8983C215.35 34.5679 214.974 35.476 214.974 36.423V97.8365C214.974 98.7835 215.35 99.6917 216.019 100.361C216.689 101.031 217.597 101.407 218.544 101.407" fill="#1582BE"/>
<path d="M204.262 82.483C204.731 82.4829 205.195 82.3905 205.628 82.2111C206.062 82.0316 206.455 81.7686 206.787 81.437C207.118 81.1054 207.381 80.7118 207.561 80.2786C207.74 79.8454 207.832 79.3811 207.832 78.9122V55.3468C207.832 54.3999 207.456 53.4917 206.787 52.8221C206.117 52.1525 205.209 51.7764 204.262 51.7764C203.315 51.7764 202.407 52.1525 201.737 52.8221C201.068 53.4917 200.691 54.3999 200.691 55.3468V78.9122C200.691 79.8592 201.068 80.7675 201.737 81.4371C202.407 82.1068 203.315 82.483 204.262 82.483Z" fill="#1582BE"/>
<path d="M189.98 94.622C190.927 94.622 191.835 94.2458 192.505 93.5762C193.174 92.9065 193.55 91.9983 193.55 91.0513V43.2063C193.55 42.2594 193.174 41.3512 192.505 40.6815C191.835 40.0119 190.927 39.6357 189.98 39.6357C189.033 39.6357 188.125 40.0119 187.455 40.6815C186.785 41.3512 186.409 42.2594 186.409 43.2063V91.0513C186.409 91.5202 186.501 91.9845 186.681 92.4177C186.86 92.851 187.123 93.2446 187.455 93.5762C187.786 93.9078 188.18 94.1708 188.613 94.3502C189.046 94.5297 189.511 94.622 189.98 94.622Z" fill="#1582BE"/>
<path d="M272.1 67.1293C272.1 67.8355 272.309 68.5258 272.701 69.1129C273.094 69.7 273.651 70.1576 274.304 70.4278C274.956 70.698 275.674 70.7686 276.367 70.6308C277.059 70.493 277.696 70.153 278.195 69.6536C278.694 69.1543 279.034 68.5181 279.172 67.8255C279.31 67.1329 279.239 66.415 278.969 65.7626C278.698 65.1102 278.241 64.5526 277.654 64.1603C277.066 63.768 276.376 63.5586 275.67 63.5586C275.201 63.5586 274.737 63.651 274.304 63.8304C273.87 64.0099 273.477 64.2729 273.145 64.6045C272.814 64.936 272.551 65.3297 272.371 65.7629C272.192 66.1961 272.1 66.6604 272.1 67.1293Z" fill="#1582BE"/>
<path d="M257.818 67.1293C257.818 67.8355 258.028 68.5257 258.42 69.1129C258.813 69.7 259.37 70.1576 260.023 70.4278C260.675 70.698 261.393 70.7686 262.085 70.6309C262.778 70.4931 263.414 70.153 263.913 69.6537C264.413 69.1544 264.753 68.5182 264.891 67.8257C265.028 67.1331 264.958 66.4152 264.688 65.7628C264.417 65.1104 263.96 64.5528 263.373 64.1604C262.786 63.7681 262.095 63.5587 261.389 63.5586C260.442 63.5586 259.534 63.9348 258.864 64.6044C258.195 65.2741 257.818 66.1823 257.818 67.1293Z" fill="#1582BE"/>
<path d="M243.537 67.1293C243.537 67.8355 243.746 68.5258 244.139 69.1129C244.531 69.7 245.088 70.1576 245.741 70.4278C246.393 70.698 247.111 70.7686 247.804 70.6308C248.496 70.493 249.133 70.153 249.632 69.6536C250.131 69.1543 250.471 68.5181 250.609 67.8255C250.747 67.1329 250.676 66.415 250.406 65.7626C250.135 65.1102 249.678 64.5526 249.091 64.1603C248.504 63.768 247.813 63.5586 247.107 63.5586C246.638 63.5586 246.174 63.651 245.741 63.8304C245.307 64.0099 244.914 64.2729 244.582 64.6045C244.251 64.936 243.988 65.3297 243.808 65.7629C243.629 66.1961 243.537 66.6604 243.537 67.1293Z" fill="#1582BE"/>
</g>
</svg>
