<svg width="173" height="156" viewBox="0 0 173 156" fill="none" xmlns="http://www.w3.org/2000/svg">
<mask id="mask0_1477_2116" style="mask-type:luminance" maskUnits="userSpaceOnUse" x="0" y="0" width="173" height="156">
<path d="M172.34 0H0.825684V155.813H172.34V0Z" fill="white"/>
</mask>
<g mask="url(#mask0_1477_2116)">
<path d="M155.229 5.09985e-06H17.7987C15.5642 0.000766182 13.3519 0.442562 11.2886 1.30006C9.22523 2.15756 7.35143 3.4139 5.77462 4.99705C4.1978 6.58019 2.94898 8.45901 2.09976 10.5258C1.25053 12.5925 0.817605 14.8066 0.825798 17.041V123.893C0.824549 126.122 1.26271 128.33 2.11522 130.389C2.96774 132.449 4.21789 134.321 5.79421 135.897C7.37053 137.474 9.24209 138.724 11.3019 139.576C13.3617 140.429 15.5694 140.867 17.7987 140.866H40.4746C38.4817 138.105 36.7559 135.161 35.3206 132.073H17.7987C15.6311 132.067 13.5539 131.204 12.0214 129.671C10.489 128.138 9.62602 126.06 9.62135 123.893V42.8795H163.543V123.893C163.519 126.078 162.631 128.165 161.073 129.697C159.516 131.23 157.415 132.084 155.229 132.073H137.775C136.338 135.145 134.637 138.088 132.69 140.866H155.229C164.642 140.866 172.339 133.24 172.339 123.893V17.041C172.324 12.5141 170.515 8.17777 167.307 4.98318C164.1 1.78859 159.756 -0.00348899 155.229 5.09985e-06ZM22.8835 26.7985H21.5074C20.0869 26.7968 18.725 26.2316 17.7206 25.2271C16.7162 24.2226 16.1513 22.8606 16.1497 21.4401C16.1518 20.7401 16.2924 20.0475 16.5633 19.4021C16.8342 18.7566 17.2301 18.1712 17.7282 17.6794C18.2263 17.1876 18.8168 16.7992 19.4656 16.5365C20.1144 16.2738 20.8088 16.1421 21.5087 16.1489H22.8848C24.2949 16.1471 25.6487 16.7018 26.6521 17.6926C27.6554 18.6834 28.2272 20.0301 28.2432 21.4401C28.2298 22.8573 27.6608 24.2127 26.6585 25.2148C25.6562 26.2168 24.3007 26.7855 22.8835 26.7985ZM41.2308 26.7985H39.7892C39.0891 26.7966 38.3964 26.6562 37.7508 26.3854C37.1052 26.1147 36.5196 25.7188 36.0276 25.2208C35.5357 24.7227 35.1471 24.1323 34.8843 23.4834C34.6215 22.8346 34.4896 22.1401 34.4963 21.4401C34.4907 20.7437 34.6238 20.0531 34.8877 19.4086C35.1516 18.7642 35.5412 18.1786 36.0336 17.6862C36.5261 17.1937 37.1116 16.8042 37.7561 16.5403C38.4006 16.2763 39.0911 16.1433 39.7875 16.1489H41.2291C42.6323 16.1492 43.978 16.7068 44.9702 17.699C45.9624 18.6912 46.52 20.0369 46.5203 21.4401C46.5225 22.8503 45.9678 24.2043 44.977 25.2078C43.9861 26.2112 42.6392 26.7829 41.2291 26.7985M59.4388 26.7985H58.2013C56.7807 26.7968 55.4187 26.2317 54.4142 25.2272C53.4096 24.2227 52.8444 22.8607 52.8426 21.4401C52.8447 20.74 52.9853 20.0473 53.2563 19.4018C53.5273 18.7562 53.9233 18.1707 54.4216 17.6789C54.9198 17.1871 55.5104 16.7987 56.1594 16.5361C56.8084 16.2735 57.5029 16.1419 58.203 16.1489H59.4388C60.8598 16.1323 62.2293 16.6801 63.247 17.6721C64.2646 18.664 64.8472 20.0191 64.867 21.4401C64.8499 22.868 64.2703 24.2316 63.254 25.2348C62.2377 26.238 60.8668 26.7999 59.4388 26.7985ZM151.175 26.1809H118.947C118.319 26.19 117.695 26.074 117.112 25.8398C116.529 25.6056 115.998 25.2578 115.551 24.8167C115.103 24.3756 114.748 23.8499 114.505 23.2702C114.263 22.6905 114.138 22.0683 114.138 21.4399C114.138 20.8115 114.263 20.1894 114.505 19.6097C114.748 19.03 115.103 18.5043 115.551 18.0632C115.998 17.622 116.529 17.2743 117.112 17.0401C117.695 16.8059 118.319 16.6899 118.947 16.699H151.175C152.433 16.699 153.638 17.1985 154.528 18.0876C155.417 18.9767 155.916 20.1826 155.916 21.4399C155.916 22.6973 155.417 23.9032 154.528 24.7923C153.638 25.6814 152.433 26.1809 151.175 26.1809Z" fill="#6EA9D8"/>
<path d="M134.171 108.197C134.171 81.9419 112.81 60.5811 86.5546 60.5811C60.2993 60.5811 38.9385 81.9419 38.9385 108.197C38.9385 134.452 60.2999 155.813 86.5546 155.813C112.809 155.813 134.171 134.452 134.171 108.197ZM107.076 112.33L77.1821 129.931C76.4536 130.36 75.6247 130.589 74.7793 130.595C73.934 130.6 73.1022 130.382 72.3682 129.962C71.6343 129.543 71.0243 128.937 70.6 128.206C70.1757 127.474 69.9523 126.644 69.9522 125.799V90.5949C69.9523 89.7495 70.1757 88.9192 70.6 88.188C71.0243 87.4568 71.6343 86.8507 72.3682 86.4312C73.1022 86.0116 73.934 85.7935 74.7793 85.799C75.6247 85.8044 76.4536 86.0332 77.1821 86.4622L107.076 104.064C107.796 104.488 108.392 105.092 108.806 105.817C109.22 106.542 109.438 107.362 109.438 108.197C109.438 109.032 109.22 109.852 108.806 110.577C108.392 111.302 107.796 111.906 107.076 112.33Z" fill="#1582BE"/>
</g>
</svg>
