<?xml version="1.0" encoding="UTF-8"?>
<svg id="Ebene_1" xmlns="http://www.w3.org/2000/svg" viewBox="0 0 550.63 825.1">
  <defs>
    <style>
      .cls-1 {
        fill: #fff;
      }
    </style>
  </defs>
  <path class="cls-1" d="M199.96,539.77c-35.6,0-69.45-12.3-96.37-33.87v297.88c0,5.1,2.53,9.67,7.52,13.58,6.18,4.85,15.19,7.74,24.1,7.74,5.81,0,14.39-1.21,22.28-6.98l60.23-44.03c16.07-11.75,36.44-18.22,57.35-18.22s41.28,6.47,57.35,18.22l60.23,44.03c7.89,5.77,16.47,6.98,22.28,6.98,8.91,0,17.92-2.9,24.1-7.75,4.99-3.91,7.52-8.48,7.52-13.58v-297.49c-26.84,21.33-60.49,33.49-95.88,33.49h-150.7Z"/>
  <path class="cls-1" d="M533.98,192.84l-75.35-130.51C436.43,23.89,395.06,0,350.66,0h-150.7c-44.4,0-85.77,23.89-107.97,62.33L16.65,192.84c-22.2,38.45-22.2,86.22,0,124.67l58.4,101.15,13.84,23.97,3.11,5.39c3.43,5.94,7.32,11.52,11.6,16.73,23.45,28.52,58.83,45.6,96.37,45.6h150.7c37.28,0,72.43-16.85,95.88-45.02,4.48-5.38,8.53-11.16,12.09-17.32l2.62-4.54,13.97-24.2,58.76-101.77c22.2-38.45,22.2-86.22,0-124.67ZM413.32,295.93c0,24.01-12.92,46.39-33.71,58.39l-70.58,40.75c-20.79,12.01-46.63,12.01-67.42,0l-55.04-31.78-13.09-7.56-2.45-1.42c-3.33-1.92-6.46-4.12-9.37-6.54-15.23-12.68-24.35-31.69-24.35-51.85v-81.5c0-20.3,9.24-39.44,24.66-52.12,2.82-2.32,5.84-4.42,9.05-6.27l2.91-1.68,12.96-7.48,54.71-31.58c20.79-12.01,46.63-12.01,67.42,0l70.58,40.75c20.79,12.01,33.71,34.38,33.71,58.39v81.5Z"/>
</svg>